<svg width="386" height="386" viewBox="0 0 386 386" fill="none" xmlns="http://www.w3.org/2000/svg">
<rect width="386" height="386" rx="193" fill="#93ADAA"/>
<path d="M193 65V65C202.555 95.106 239.67 105.874 264.006 85.7396V85.7396V85.7396C255.701 116.135 281.192 145.207 312.468 141.374V141.374V141.374C289.006 162.437 294.562 200.622 323 214.239V214.239V214.239C291.907 219.326 275.7 254.396 292.258 281.201V281.201V281.201C263.285 268.737 230.643 289.467 230.002 321V321V321C212.3 294.782 173.7 294.782 155.998 321V321V321C155.357 289.467 122.715 268.737 93.7423 281.201V281.201V281.201C110.3 254.396 94.0931 219.326 63 214.239V214.239V214.239C91.4383 200.622 96.9938 162.437 73.5318 141.374V141.374V141.374C104.808 145.207 130.299 116.135 121.994 85.7396V85.7396V85.7396C146.33 105.874 183.445 95.106 193 65V65Z" fill="#262625"/>
</svg>
