<svg width="325" height="144" viewBox="0 0 325 144" fill="none" xmlns="http://www.w3.org/2000/svg">
<path fill-rule="evenodd" clip-rule="evenodd" d="M147.027 32H173.073L150.747 112H124.701L147.027 32ZM70.8157 111.481H113.082V32.1235H87.2046V73.1823C87.2046 81.8081 80.9941 88.1912 72.5409 88.1912C64.0877 88.1912 57.8772 81.8081 57.8772 73.1823V32.1235H32V71.8022C32 94.7468 48.3889 111.481 70.8157 111.481ZM253.596 111.481H292.411V32.1235H253.596C230.824 32.1235 213.055 49.8927 213.055 71.8022C213.055 93.7117 230.824 111.481 253.596 111.481ZM267.397 71.8022C267.397 79.5654 261.186 85.9485 253.596 85.9485C246.005 85.9485 239.794 79.5654 239.794 71.8022C239.794 64.039 246.005 57.6559 253.596 57.6559C261.186 57.6559 267.397 64.039 267.397 71.8022ZM210.282 32H184.236L161.91 112H187.956L210.282 32Z" fill="#262625"/>
</svg>
