<svg width="249" height="69" viewBox="0 0 249 69" fill="none" xmlns="http://www.w3.org/2000/svg">
<g clip-path="url(#clip0_636_1770)">
<path d="M27.0068 16.2263L27.0951 17.2147C27.3598 20.1623 29.6014 21.2036 32.0724 19.5092L32.9019 18.9444C35.3906 17.25 39.4324 14.479 41.9211 12.7846L42.7506 12.2198C45.2216 10.5254 45.0098 8.10728 42.2741 6.85418L41.3739 6.43058C38.6382 5.17738 34.1551 3.11238 31.4193 1.85918L30.5192 1.45329C29.8308 1.13559 29.1954 0.994385 28.6306 0.994385H28.5953C26.9009 0.994385 25.8066 2.33578 26.0008 4.54198L26.089 5.51278C26.3361 8.44268 26.7421 13.2788 27.0068 16.2263Z" fill="#F05B5C"/>
<path d="M3.48034 51.5263L3.56864 52.497C3.81574 55.4446 6.07493 56.4683 8.54593 54.7739L9.35784 54.2091C11.8464 52.5147 15.9059 49.7436 18.3769 48.0492L19.1888 47.4844C21.6775 45.79 21.448 43.372 18.7299 42.1189L17.8121 41.6953C15.0764 40.4421 10.5933 38.3771 7.87523 37.1239L6.97503 36.718C4.23933 35.4648 2.19194 36.8415 2.45664 39.7891L2.54493 40.7598C2.80963 43.7603 3.21564 48.5787 3.48034 51.5263Z" fill="#F05B5C"/>
<path d="M46.3508 53.2206L46.439 54.1914C46.6861 57.1389 48.9453 58.1626 51.4163 56.4859L52.2459 55.9211C54.7169 54.2267 58.776 51.4556 61.265 49.7612L62.077 49.1964C64.566 47.502 64.354 45.084 61.618 43.8308L60.718 43.4072C57.982 42.1541 53.499 40.089 50.7633 38.8359L49.8455 38.4123C47.1097 37.1591 45.0976 38.5358 45.3447 41.4834L45.433 42.4718C45.6624 45.437 46.086 50.2554 46.3508 53.2206Z" fill="#F05B5C"/>
<path d="M3.85052 25.7926C6.58622 27.0458 11.087 29.1108 13.8051 30.364L14.7229 30.7875C17.4586 32.0407 19.4884 30.664 19.2236 27.7165L19.1354 26.7281C18.8883 23.7805 18.4647 18.9444 18.1999 15.9969L18.1117 15.0261C17.8646 12.0785 15.623 11.0372 13.1344 12.7316L12.3225 13.2964C9.83382 14.9908 5.77432 17.7619 3.30332 19.4563L2.47382 20.021C1.43242 20.727 0.867619 21.5742 0.761719 22.3861V22.951C0.885319 23.8864 1.62662 24.7689 2.95032 25.3866L3.85052 25.7926Z" fill="#F9BB40"/>
<path d="M46.7215 27.4694C49.4572 28.7226 53.9403 30.7876 56.676 32.0408L57.576 32.4643C60.312 33.7175 62.342 32.3408 62.077 29.3756L61.989 28.4049C61.724 25.4573 61.318 20.6212 61.053 17.6737L60.965 16.6853C60.718 13.7377 58.476 12.6964 55.9877 14.4084L55.1758 14.9556C52.6872 16.65 48.6277 19.421 46.1567 21.1154L45.3271 21.6802C42.8561 23.3746 43.0679 25.7927 45.786 27.0458L46.7215 27.4694Z" fill="#F9BB40"/>
<path d="M23.1953 62.7697C25.931 64.023 30.4141 66.088 33.1499 67.341L34.05 67.765C36.7858 69.018 38.8155 67.641 38.5684 64.694L38.4802 63.7228C38.2331 60.7752 37.8095 55.9391 37.5447 52.9915L37.4565 52.0031C37.1917 49.0556 34.9502 48.0319 32.4792 49.7086L31.6496 50.2734C29.161 51.9678 25.1191 54.7389 22.6305 56.4333L21.8009 56.9981C19.3299 58.6925 19.5417 61.1106 22.2775 62.3637L23.1953 62.7697Z" fill="#F9BB40"/>
<path d="M144.574 39.8952C144.574 36.2063 143.391 33.0999 141.044 30.6113C138.696 28.1226 135.696 26.8518 132.078 26.8518C128.247 26.8518 125.123 28.0873 122.688 30.576C120.252 33.0646 119.034 36.171 119.034 39.8952C119.034 43.6546 120.27 46.761 122.741 49.232C125.212 51.703 128.495 52.9385 132.572 52.9385C137.32 52.9385 140.903 51.1735 143.338 47.6435L138.202 44.6783C136.949 46.3198 135.113 47.1493 132.66 47.1493C128.865 47.1493 126.553 45.5961 125.688 42.5074H144.327C144.485 41.5896 144.574 40.7247 144.574 39.8952ZM125.6 37.5654C125.971 35.9769 126.712 34.759 127.824 33.8765C128.936 33.0117 130.365 32.5704 132.078 32.5704C133.525 32.5704 134.813 32.9764 135.961 33.8059C137.09 34.6355 137.849 35.8886 138.202 37.5654H125.6Z" fill="#1B1B1B"/>
<path d="M114.869 27.3992C114.869 24.5575 113.863 22.2276 111.833 20.4097C109.803 18.5917 107.315 17.6562 104.35 17.6562H90.7061V52.2503H105.391C108.427 52.2503 110.968 51.3148 113.051 49.4263C115.134 47.5554 116.157 45.1373 116.157 42.2074C116.157 38.6774 114.639 36.0476 111.604 34.3003C113.792 32.5706 114.869 30.2585 114.869 27.3992ZM97.5191 24.028H104.332C105.426 24.028 106.309 24.3985 106.997 25.1222C107.685 25.8458 108.038 26.7461 108.038 27.8404C108.038 28.9347 107.685 29.8349 106.979 30.5585C106.273 31.2822 105.391 31.6528 104.332 31.6528H97.5191V24.028ZM108.25 44.7137C107.491 45.4903 106.538 45.8787 105.391 45.8787H97.5371V37.7243H105.391C106.538 37.7243 107.491 38.1126 108.25 38.8892C109.009 39.6658 109.38 40.6189 109.38 41.7838C109.38 42.9664 109.009 43.9371 108.25 44.7137Z" fill="#1B1B1B"/>
<path d="M192.512 27.54H186.141V52.25H192.512V27.54Z" fill="#1B1B1B"/>
<path d="M248.956 39.8952C248.956 36.2063 247.773 33.0999 245.426 30.6113C243.078 28.1226 240.078 26.8518 236.459 26.8518C232.629 26.8518 229.505 28.0873 227.07 30.576C224.634 33.0646 223.398 36.171 223.398 39.8952C223.398 43.6546 224.634 46.761 227.105 49.232C229.576 51.703 232.859 52.9385 236.936 52.9385C241.684 52.9385 245.267 51.1735 247.702 47.6435L242.566 44.6783C241.313 46.3198 239.478 47.1493 237.024 47.1493C233.229 47.1493 230.917 45.5961 230.052 42.5074H248.691C248.867 41.5896 248.956 40.7247 248.956 39.8952ZM229.964 37.5654C230.335 35.9769 231.076 34.759 232.188 33.8765C233.3 33.0117 234.73 32.5704 236.442 32.5704C237.889 32.5704 239.178 32.9764 240.325 33.8059C241.454 34.6355 242.213 35.8886 242.566 37.5654H229.964Z" fill="#1B1B1B"/>
<path d="M221.616 27.54H214.609L208.572 44.837L202.589 27.54H195.582L204.972 52.25H212.226L221.616 27.54Z" fill="#1B1B1B"/>
<path d="M162.56 17.6562V52.2503H182.575V45.7199H169.39V17.6562H162.56Z" fill="#1B1B1B"/>
<path d="M155.693 51.65C156.523 50.8205 156.929 49.8321 156.929 48.6848C156.929 47.5376 156.523 46.5492 155.693 45.7196C154.864 44.8901 153.875 44.4841 152.728 44.4841C151.581 44.4841 150.592 44.8901 149.763 45.7196C148.933 46.5492 148.527 47.5376 148.527 48.6848C148.527 49.8321 148.933 50.8205 149.763 51.65C150.592 52.4796 151.581 52.8855 152.728 52.8855C153.875 52.8855 154.864 52.4796 155.693 51.65Z" fill="#1B1B1B"/>
<path d="M192.089 17.9032C191.312 17.109 190.377 16.7207 189.3 16.7207C188.241 16.7207 187.323 17.109 186.564 17.9032C185.788 18.6975 185.399 19.6153 185.399 20.6743C185.399 21.7333 185.788 22.6511 186.564 23.41C187.341 24.169 188.259 24.5749 189.3 24.5749C190.394 24.5749 191.312 24.1866 192.089 23.41C192.865 22.6334 193.254 21.7156 193.254 20.6743C193.254 19.6153 192.865 18.6975 192.089 17.9032Z" fill="#1B1B1B"/>
</g>
<defs>
<clipPath id="clip0_636_1770">
<rect width="249" height="69" fill="white"/>
</clipPath>
</defs>
</svg>
