<svg width="232" height="232" viewBox="0 0 232 232" fill="none" xmlns="http://www.w3.org/2000/svg">
<g clip-path="url(#clip0_200_1919)">
<rect width="232" height="232" fill="#D2D6E0"/>
<circle cx="116.5" cy="101.5" r="47.5" fill="#E7E9EE"/>
<path d="M99.314 127.899C104.41 131.216 110.357 132.988 116.437 133C122.518 133.012 128.472 131.264 133.581 127.967L131.81 125.223C127.231 128.179 121.894 129.745 116.444 129.735C110.994 129.724 105.663 128.136 101.095 125.162L99.314 127.899Z" fill="#D2D6E0"/>
<path d="M110.731 109H104.231L96 82H102.343L107.953 101.562L113.457 82H118.595L124.152 101.358L127.922 88.1015C128.948 84.4909 132.246 82 136 82L127.769 109H121.374L116.026 90.5585L110.731 109Z" fill="#D2D6E0"/>
<ellipse cx="117" cy="227.5" rx="78" ry="78.5" fill="#E7E9EE"/>
</g>
<defs>
<clipPath id="clip0_200_1919">
<rect width="232" height="232" fill="white"/>
</clipPath>
</defs>
</svg>
