<svg width="1406" height="708" viewBox="0 0 1406 708" fill="none" xmlns="http://www.w3.org/2000/svg">
<path d="M255.422 192.336V232.259H208.416V284.41H255.422V493.657C255.422 509.551 272.434 522.255 293.86 522.255C315.26 522.255 332.595 509.551 332.595 493.657V284.41H395.17V232.259H332.595V192.336C332.595 144.193 371.718 135.299 425.254 146.803V94.6646C349.943 78.4856 255.422 86.051 255.422 192.336ZM496.138 284.391H494.557V232.272H431.994V493.645C431.994 509.551 449.005 522.255 470.437 522.255C491.831 522.255 509.16 509.551 509.16 493.645V362.269C509.16 300.196 551.072 284.391 601.826 284.391V225.678C555.938 225.557 512.946 240.091 496.138 284.391ZM1036.3 225.678C961.785 225.678 901.356 261.314 901.356 331.302C901.356 368.609 918.533 396.133 945.853 413.728C943.852 414.992 941.864 416.301 939.965 417.666C906.057 441.824 902.423 483.507 933.505 506.267C918.266 519.142 896.738 542.55 896.738 575.042C896.738 626.564 946.628 659.849 1036.19 659.849C1125.74 659.849 1194.12 619.342 1194.12 556.963C1194.12 494.591 1149.22 470.123 1067.26 470.123H1013.9C976.388 470.123 979.571 445.082 991.957 434.315C992.593 433.782 993.279 433.236 994.009 432.696C1007.31 435.51 1021.53 436.894 1036.3 436.894C1110.84 436.894 1171.25 401.284 1171.25 331.302C1171.25 315.542 1168.16 301.517 1162.58 289.257C1173.25 286.246 1185.09 284.785 1197.58 284.391V232.259C1164.45 232.259 1143.06 234.4 1120.41 245.046C1097.36 232.157 1068.13 225.678 1036.3 225.678ZM995.337 522.255H1067.26C1096.81 522.255 1116.94 531.097 1116.94 556.963C1116.94 591.735 1086.05 607.717 1036.19 607.717C959.218 607.717 963.804 546.825 995.337 522.255ZM1036.3 384.73C1004.41 384.73 978.535 372.801 978.535 331.277C978.535 289.753 1004.41 277.842 1036.3 277.842C1068.22 277.842 1094.07 289.753 1094.07 331.277C1094.07 372.801 1068.22 384.73 1036.3 384.73ZM742.056 225.678C658.29 225.678 607.111 275.695 607.111 373.976C607.111 472.263 658.29 522.255 742.056 522.255C825.823 522.255 876.989 472.263 876.989 373.976C876.989 275.695 825.823 225.678 742.056 225.678ZM742.056 470.123C710.156 470.123 684.29 457.615 684.29 373.976C684.29 290.369 710.156 277.899 742.056 277.899C773.957 277.899 799.817 290.369 799.817 373.976C799.817 457.615 773.957 470.123 742.056 470.123Z" fill="#46BD00"/>
</svg>
