<svg xmlns:xlink="http://www.w3.org/1999/xlink" xmlns="http://www.w3.org/2000/svg" width="3171" height="596" viewBox="0 0 3171 596" fill="none">
<path fill-rule="evenodd" clip-rule="evenodd" d="M137 402C176.212 402 208 370.212 208 331C208 291.788 176.212 260 137 260C97.7878 260 66 291.788 66 331C66 370.212 97.7878 402 137 402ZM144.52 284H131.36V316.149L108.706 293.494L99.4 302.8L121.96 325.36H90V337.58H122.149L99.4945 360.234L108.8 369.54L131.36 346.98V378H144.52V347.92L166.533 369.933L175.838 360.627L152.791 337.58H184V325.36H152.98L175.933 302.407L166.627 293.102L144.52 315.209V284Z" fill="#B1B1B1"/>
<path d="M1240.45 395.898C1268.54 395.898 1289.69 379.947 1289.69 355.327V329.667C1282.76 340.416 1265.07 342.844 1245.65 345.271C1222.77 348.045 1203.7 351.166 1203.7 370.585C1203.7 386.536 1216.53 395.898 1240.45 395.898Z" fill="#F3F3F1"/>
<path d="M1532.03 311.981H1626C1620.8 285.628 1604.5 269.677 1580.57 269.677C1556.3 269.677 1538.27 285.628 1532.03 311.981Z" fill="#F3F3F1"/>
<path d="M625.92 312.383H719.894C714.691 286.029 698.394 270.078 674.467 270.078C650.193 270.078 632.162 286.029 625.92 312.383Z" fill="#F3F3F1"/>
<path d="M2073.72 331.398C2073.72 368.93 2053.22 394.993 2023.33 394.993C1993.1 394.993 1971.55 368.235 1971.55 330.355C1971.55 294.561 1993.1 269.54 2023.33 269.54C2053.22 269.54 2073.72 294.909 2073.72 331.398Z" fill="#F3F3F1"/>
<path d="M2271.44 311.937H2177.27C2183.52 285.526 2201.59 269.54 2225.92 269.54C2249.9 269.54 2266.23 285.526 2271.44 311.937Z" fill="#F3F3F1"/>
<path d="M2833.59 355.376C2833.59 380.05 2812.39 396.036 2784.24 396.036C2760.27 396.036 2747.41 386.653 2747.41 370.667C2747.41 351.206 2766.52 348.079 2789.46 345.299C2808.92 342.866 2826.64 340.433 2833.59 329.66V355.376Z" fill="#F3F3F1"/>
<path fill-rule="evenodd" clip-rule="evenodd" d="M0 596V0H3171V596H0ZM66 331C66 370.212 97.7881 402 137 402C176.212 402 208 370.212 208 331C208 291.788 176.212 260 137 260C97.7881 260 66 291.788 66 331ZM369.818 424.734H324.393L255.733 182H299.079L349.706 364.051L399.294 182H438.131L488.065 364.397L538.692 182H582.038L513.379 424.734H467.953L418.713 243.377L369.818 424.734ZM1232.13 428.147C1189.83 428.147 1162.08 407.688 1162.43 373.358C1162.78 330.36 1205.43 321.344 1241.15 317.183C1243.25 316.947 1245.3 316.723 1247.31 316.504L1247.32 316.503C1271.87 313.827 1289.37 311.919 1289.69 298.458C1289.35 280.426 1275.48 268.636 1251.9 268.636C1227.62 268.636 1210.28 281.813 1207.86 300.885H1166.59C1170.41 262.048 1205.08 235 1252.59 235C1302.18 235 1329.57 262.048 1329.57 301.232V384.455C1329.57 389.657 1332.34 392.431 1338.59 392.431H1348.64V424.333H1329.22C1310.5 424.333 1299.06 416.704 1295.93 402.834C1295.24 401.1 1294.55 398.673 1294.2 396.592C1283.45 416.357 1263.34 428.147 1232.13 428.147ZM1489.38 333.134C1489.38 389.31 1527.87 429.534 1584.04 429.534C1627.39 429.534 1658.25 405.608 1667.61 366.077H1627.73C1621.49 384.455 1605.54 394.858 1584.39 394.858C1553.18 394.858 1533.07 373.012 1530.29 340.763H1668.31V331.054C1667.26 271.41 1632.59 235 1580.57 235C1529.25 235 1489.38 272.45 1489.38 333.134ZM1413.09 424.333H1372.18V240.549H1405.12L1409.97 276.611C1421.76 251.645 1443.26 238.468 1473.78 238.468H1480.71V278.346H1473.78C1435.63 278.346 1413.09 298.805 1413.09 333.481V424.333ZM583.269 333.536C583.269 389.712 621.759 429.937 677.935 429.937C721.28 429.937 752.143 406.01 761.505 366.479H721.627C715.386 384.856 699.435 395.26 678.281 395.26C647.073 395.26 626.961 373.414 624.187 341.165H762.198V331.455C761.158 271.812 726.481 235.401 674.467 235.401C623.146 235.401 583.269 272.853 583.269 333.536ZM1800 402C1839.21 402 1871 370.212 1871 331C1871 291.788 1839.21 260 1800 260C1760.79 260 1729 291.788 1729 331C1729 370.212 1760.79 402 1800 402ZM885.964 270.269C885.964 262.112 892.575 255.5 900.731 255.5C908.888 255.5 915.5 262.112 915.5 270.269V381.967C915.5 399.4 929.454 413.626 946.884 413.961C964.795 414.306 979.5 399.881 979.5 381.967V367.331C979.5 350.013 993.539 335.974 1010.86 335.974H1089.27L1069.58 355.657L1080.19 366.265L1117.98 328.474L1080.19 290.683L1069.58 301.29L1089.27 320.974H1010.86C985.255 320.974 964.5 341.729 964.5 367.331V381.967C964.5 391.484 956.688 399.147 947.173 398.964C937.913 398.786 930.5 391.229 930.5 381.967V270.269C930.5 253.828 917.172 240.5 900.731 240.5C884.291 240.5 870.964 253.828 870.964 270.269V281.736C870.964 296.227 859.217 307.974 844.727 307.974H811V322.974H844.727C867.501 322.974 885.964 304.512 885.964 281.736V270.269ZM1967.38 391.866C1978.85 415.149 2003.18 429.745 2032.37 429.745C2081.37 429.745 2115.77 389.433 2115.77 331.398C2115.77 274.405 2081.37 234.788 2032.72 234.788C2006.65 234.788 1984.76 246.256 1971.55 264.327V163.895H1930.55V424.532H1963.56L1967.38 391.866ZM2134.52 333.135C2134.52 389.433 2173.1 429.745 2229.39 429.745C2272.83 429.745 2303.76 405.766 2313.15 366.15H2273.18C2266.93 384.568 2250.94 394.993 2229.74 394.993C2198.46 394.993 2178.31 373.1 2175.53 340.781H2313.84V331.05C2312.8 271.278 2278.05 234.788 2225.92 234.788C2174.49 234.788 2134.52 272.32 2134.52 333.135ZM2332.98 365.802C2335.41 406.114 2365.3 429.745 2415.69 429.745C2460.87 429.745 2486.58 408.894 2486.58 374.837C2486.58 341.823 2464.69 330.703 2428.2 318.54L2405.96 311.242C2404.73 310.821 2403.47 310.406 2402.21 309.988C2389.91 305.921 2376.77 301.574 2376.77 288.653C2376.77 276.143 2387.19 268.497 2405.26 268.497C2426.46 268.497 2441.41 278.228 2443.49 299.079H2482.41C2477.55 257.377 2448.36 234.788 2405.61 234.788C2361.48 234.788 2336.46 256.334 2336.46 289.001C2336.46 323.057 2362.87 333.483 2393.45 343.561L2417.77 351.554C2418.84 351.902 2419.89 352.239 2420.92 352.569C2435.28 357.189 2445.58 360.498 2445.58 373.795C2445.58 388.043 2434.46 396.036 2413.6 396.036C2391.02 396.036 2373.99 385.61 2372.6 365.802H2332.98ZM2589.23 424.532H2612.86V389.781H2592.01C2576.72 389.781 2568.73 381.093 2568.73 365.454V275.1H2616.34V240.349H2568.73V177.448H2527.72V240.349H2495.4V275.1H2527.72V368.235C2527.72 404.724 2549.27 424.532 2589.23 424.532ZM2706.05 373.447C2705.71 407.851 2733.51 428.355 2775.9 428.355C2807.18 428.355 2827.34 416.539 2838.11 396.731C2838.46 398.816 2839.15 401.249 2839.85 402.986C2842.97 416.887 2854.44 424.532 2873.21 424.532H2892.67V392.561H2882.59C2876.34 392.561 2873.56 389.781 2873.56 384.568V301.164C2873.56 261.895 2846.1 234.788 2796.41 234.788C2748.8 234.788 2714.05 261.895 2710.22 300.816H2751.58C2754.01 281.703 2771.39 268.497 2795.71 268.497C2819.34 268.497 2833.24 280.313 2833.59 298.384C2833.27 311.875 2815.73 313.787 2791.12 316.469C2789.11 316.688 2787.04 316.913 2784.94 317.15C2749.14 321.32 2706.4 330.355 2706.05 373.447ZM2993.18 424.532H3016.81V389.781H2995.96C2980.67 389.781 2972.67 381.093 2972.67 365.454V275.1H3020.28V240.349H2972.67V177.448H2931.67V240.349H2899.35V275.1H2931.67V368.235C2931.67 404.724 2953.21 424.532 2993.18 424.532ZM3039.19 261.2C3039.19 276.49 3050.65 287.958 3065.6 287.958C3080.89 287.958 3092.35 276.49 3092.35 261.2C3092.35 246.256 3080.89 234.788 3065.6 234.788C3050.65 234.788 3039.19 246.256 3039.19 261.2ZM3039.19 402.291C3039.19 417.582 3050.65 429.05 3065.6 429.05C3080.89 429.05 3092.35 417.582 3092.35 402.291C3092.35 387.348 3080.89 375.88 3065.6 375.88C3050.65 375.88 3039.19 387.348 3039.19 402.291Z" fill="#F3F3F1"/>
<path fill-rule="evenodd" clip-rule="evenodd" d="M1800 402C1839.21 402 1871 370.212 1871 331C1871 291.788 1839.21 260 1800 260C1760.79 260 1729 291.788 1729 331C1729 370.212 1760.79 402 1800 402ZM1800 284C1795.81 308.011 1777.01 326.813 1753 331C1777.01 335.187 1795.81 353.989 1800 378C1804.19 353.989 1822.99 335.187 1847 331C1822.99 326.813 1804.19 308.011 1800 284Z" fill="#BAA9A9"/>
</svg>